HIERARCHY
ROOT Hips
{
	OFFSET 0.00000 0.00000 0.00000
	CHANNELS 6 Xposition Yposition Zposition Zrotation Yrotation Xrotation 
	JOINT LHipJoint
	{
		OFFSET 0 0 0
		CHANNELS 3 Zrotation Yrotation Xrotation
		JOINT LeftHip
		{
			OFFSET 1.57358 -1.76629 0.73362
			CHANNELS 3 Zrotation Yrotation Xrotation
			JOINT LeftKnee
			{
				OFFSET 2.40600 -6.61045 0.00000
				CHANNELS 3 Zrotation Yrotation Xrotation
				JOINT LeftAnkle
				{
					OFFSET 2.66168 -7.31291 0.00000
					CHANNELS 3 Zrotation Yrotation Xrotation
					JOINT LeftToe
					{
						OFFSET 0.20870 -0.57341 2.12506
						CHANNELS 3 Zrotation Yrotation Xrotation
						End Site
						{
							OFFSET 0.00000 -0.00000 1.10557
						}
					}
				}
			}
		}
	}
	JOINT RHipJoint
	{
		OFFSET 0 0 0
		CHANNELS 3 Zrotation Yrotation Xrotation
		JOINT RightHip
		{
			OFFSET -1.49299 -1.76629 0.73362
			CHANNELS 3 Zrotation Yrotation Xrotation
			JOINT RightKnee
			{
				OFFSET -2.43663 -6.69460 0.00000
				CHANNELS 3 Zrotation Yrotation Xrotation
				JOINT RightAnkle
				{
					OFFSET -2.62959 -7.22474 0.00000
					CHANNELS 3 Zrotation Yrotation Xrotation
					JOINT RightToe
					{
						OFFSET -0.25784 -0.70841 2.21862
						CHANNELS 3 Zrotation Yrotation Xrotation
						End Site
						{
							OFFSET -0.00000 -0.00000 1.16452
						}
					}
				}
			}
		}
	}
	JOINT lowerback
	{
		OFFSET 0 0 0
		CHANNELS 3 Zrotation Yrotation Xrotation
		JOINT Chest
		{
			OFFSET -0.00034 2.12399 -0.25450
			CHANNELS 3 Zrotation Yrotation Xrotation
			JOINT Chest2
			{
				OFFSET 0.05594 2.14379 -0.03318
				CHANNELS 3 Zrotation Yrotation Xrotation
				JOINT lowerneck
				{
					OFFSET 0 0 0
					CHANNELS 3 Zrotation Yrotation Xrotation
					JOINT Neck
					{
						OFFSET -0.09835 1.62725 0.24211
						CHANNELS 3 Zrotation Yrotation Xrotation
						JOINT Head
						{
							OFFSET 0.10849 1.66041 -0.22648
							CHANNELS 3 Zrotation Yrotation Xrotation
							End Site
							{
								OFFSET 0.04385 1.68267 -0.10541
							}
						}
					}
				}
				JOINT LeftCollar
				{
					OFFSET 0 0 0
					CHANNELS 3 Zrotation Yrotation Xrotation
					JOINT LeftShoulder
					{
						OFFSET 3.29108 0.79398 -0.68179
CHANNELS 3 Zrotation Xrotation Yrotation
						JOINT LeftElbow
						{
OFFSET 0 -5.153100 -0.000000
CHANNELS 3 Zrotation Xrotation Yrotation
							JOINT LeftWrist
							{
OFFSET 0 -3.751380 -0.000000
CHANNELS 3 Zrotation Xrotation Yrotation
								JOINT lhand
								{
									OFFSET 0 0 0
CHANNELS 3 Zrotation Xrotation Yrotation
									JOINT LFingers
									{
OFFSET 0 -0.529170 0.000000
CHANNELS 3 Zrotation Xrotation Yrotation
										End Site
										{
OFFSET 0 -0.426630 0.000000
										}
									}
								}
								JOINT LThumb
								{
OFFSET 0 0.000000 0.000000
CHANNELS 3 Zrotation Xrotation Yrotation
									End Site
									{
OFFSET 0 -0.433150 0.433150
									}
								}
							}
						}
					}
				}
				JOINT RightCollar
				{
					OFFSET 0 0 0
					CHANNELS 3 Zrotation Yrotation Xrotation
					JOINT RightShoulder
					{
						OFFSET -3.07414 1.06285 -0.44338
CHANNELS 3 Zrotation Xrotation Yrotation
						JOINT RightElbow
						{
OFFSET 0 -5.296130 0.000000
CHANNELS 3 Zrotation Xrotation Yrotation
							JOINT RightWrist
							{
OFFSET 0 -3.761440 -0.000000
CHANNELS 3 Zrotation Xrotation Yrotation
								JOINT rhand
								{
									OFFSET 0 0 0
CHANNELS 3 Zrotation Xrotation Yrotation
									JOINT RFingers
									{
OFFSET 0 -0.747320 0.000000
CHANNELS 3 Zrotation Xrotation Yrotation
										End Site
										{
OFFSET 0 -0.602510 0.000000
										}
									}
								}
								JOINT RThumb
								{
OFFSET 0 0.000000 0.000000
CHANNELS 3 Zrotation Xrotation Yrotation
									End Site
									{
OFFSET 0 -0.611710 0.611710
									}
								}
							}
						}
					}
				}
			}
		}
	}
}
MOTION
Frames: 10
Frame Time: 0.008333333333333333
6.760174 16.847337 2.279768 23.147258 -43.689482 -4.217246 0.000000 0.000000 0.000000 -31.982375 1.143361 11.430880 2.095155 9.058622 25.980925 0.717295 -5.800365 19.201030 0.181704 -2.700830 -7.449099 0.000000 0.000000 0.000000 22.108967 12.557144 -50.252470 -5.662174 -14.085744 43.596544 0.002710 6.446878 -4.437532 -0.390006 3.962926 -10.977621 -10.123449 -0.817824 13.530317 -2.290850 -2.815005 1.166611 3.777513 -1.170650 -5.998844 -10.829715 -0.861807 -17.392728 5.142502 0.666178 11.844304 3.486735 0.263074 6.393759 0.000000 0.000000 0.000000 1.130765 14.659124 -45.938358 121.887326 -55.781477 87.223570 13.382332 -29.961720 -6.924156 0.000000 0.000000 0.000000 -7.125000 0.000000 0.000000 -11.312904 36.883797 -2.294678 0.000000 0.000000 0.000000 -7.508848 27.487382 47.791194 -130.477147 -52.801236 -94.206428 -19.572746 -13.546126 -27.142926 0.000000 0.000000 0.000000 7.125000 0.000000 0.000000 6.285253 1.578750 6.147149
6.708722 16.859012 2.394703 23.411774 -43.657445 -4.372337 0.000000 0.000000 0.000000 -32.143125 1.174682 11.315439 2.164865 9.194866 26.411576 0.742684 -4.875096 18.902690 0.148111 -2.364690 -6.519496 0.000000 0.000000 0.000000 22.111702 12.351232 -50.035409 -5.458723 -13.866033 42.736231 0.005129 6.184234 -4.172196 -0.325618 3.547778 -9.819262 -10.194548 -0.823272 13.476951 -2.310349 -2.828615 1.152034 3.796739 -1.176351 -5.980733 -10.868946 -0.896620 -17.325185 5.073907 0.631133 11.859513 3.466604 0.237222 6.390877 0.000000 0.000000 0.000000 1.190294 14.740172 -45.924875 121.320179 -55.938230 86.752911 13.394995 -29.900761 -7.005267 0.000000 0.000000 0.000000 -7.125000 0.000000 0.000000 -11.316711 36.966191 -2.272233 0.000000 0.000000 0.000000 -7.506345 27.480945 47.577583 -130.440840 -52.816108 -94.177484 -19.613638 -13.482979 -27.117579 0.000000 0.000000 0.000000 7.125000 0.000000 0.000000 6.258160 1.597450 6.118247
6.657271 16.870686 2.509639 23.676290 -43.625409 -4.527429 0.000000 0.000000 0.000000 -32.303875 1.206003 11.199999 2.234575 9.331110 26.842227 0.768073 -3.949827 18.604349 0.114518 -2.028549 -5.589894 0.000000 0.000000 0.000000 22.114436 12.145320 -49.818348 -5.255272 -13.646322 41.875918 0.007548 5.921591 -3.906859 -0.261229 3.132630 -8.660904 -10.265646 -0.828720 13.423585 -2.329849 -2.842224 1.137457 3.815965 -1.182051 -5.962622 -10.908176 -0.931433 -17.257641 5.005312 0.596089 11.874721 3.446474 0.211370 6.387995 0.000000 0.000000 0.000000 1.249823 14.821220 -45.911391 120.753032 -56.094983 86.282251 13.407658 -29.839801 -7.086378 0.000000 0.000000 0.000000 -7.125000 0.000000 0.000000 -11.320518 37.048586 -2.249789 0.000000 0.000000 0.000000 -7.503842 27.474508 47.363972 -130.404534 -52.830979 -94.148539 -19.654530 -13.419832 -27.092232 0.000000 0.000000 0.000000 7.125000 0.000000 0.000000 6.231067 1.616150 6.089345
6.605819 16.882361 2.624574 23.940806 -43.593373 -4.682520 0.000000 0.000000 0.000000 -32.464625 1.237324 11.084559 2.304286 9.467354 27.272878 0.793463 -3.024558 18.306009 0.080925 -1.692409 -4.660292 0.000000 0.000000 0.000000 22.117171 11.939407 -49.601287 -5.051821 -13.426611 41.015605 0.009967 5.658947 -3.641523 -0.196841 2.717482 -7.502545 -10.336745 -0.834168 13.370219 -2.349348 -2.855834 1.122879 3.835191 -1.187752 -5.944511 -10.947406 -0.966246 -17.190097 4.936716 0.561045 11.889929 3.426343 0.185518 6.385114 0.000000 0.000000 0.000000 1.309352 14.902268 -45.897908 120.185885 -56.251736 85.811592 13.420321 -29.778841 -7.167489 0.000000 0.000000 0.000000 -7.125000 0.000000 0.000000 -11.324326 37.130980 -2.227345 0.000000 0.000000 0.000000 -7.501339 27.468071 47.150361 -130.368227 -52.845851 -94.119595 -19.695423 -13.356685 -27.066885 0.000000 0.000000 0.000000 7.125000 0.000000 0.000000 6.203974 1.634851 6.060442
6.554367 16.894035 2.739510 24.205321 -43.561336 -4.837612 0.000000 0.000000 0.000000 -32.625375 1.268645 10.969118 2.373996 9.603598 27.703528 0.818852 -2.099289 18.007669 0.047332 -1.356269 -3.730689 0.000000 0.000000 0.000000 22.119906 11.733495 -49.384227 -4.848370 -13.206900 40.155292 0.012386 5.396303 -3.376187 -0.132453 2.302334 -6.344186 -10.407843 -0.839616 13.316853 -2.368848 -2.869444 1.108302 3.854417 -1.193452 -5.926400 -10.986637 -1.001059 -17.122554 4.868121 0.526000 11.905138 3.406213 0.159666 6.382232 0.000000 0.000000 0.000000 1.368881 14.983316 -45.884424 119.618737 -56.408490 85.340933 13.432984 -29.717882 -7.248600 0.000000 0.000000 0.000000 -7.125000 0.000000 0.000000 -11.328133 37.213374 -2.204900 0.000000 0.000000 0.000000 -7.498836 27.461635 46.936750 -130.331921 -52.860723 -94.090651 -19.736315 -13.293537 -27.041537 0.000000 0.000000 0.000000 7.125000 0.000000 0.000000 6.176881 1.653551 6.031540
6.501801 16.903513 2.852625 24.384625 -43.532752 -4.929979 0.000000 0.000000 0.000000 -32.673215 1.487731 10.742573 2.472188 9.779561 28.272323 0.792926 -1.496052 17.425869 0.073732 -1.587613 -4.371844 0.000000 0.000000 0.000000 22.124759 11.614615 -49.151034 -4.686427 -13.015106 39.436042 0.012372 5.033524 -3.094640 -0.125563 2.276698 -6.271206 -10.475772 -0.823926 13.252079 -2.351940 -2.848435 1.111881 3.904181 -1.183601 -5.885377 -10.988063 -1.070772 -17.142011 4.780271 0.447848 11.949268 3.370248 0.113083 6.406671 0.000000 0.000000 0.000000 1.421569 15.001938 -45.879666 118.986779 -56.566749 84.812979 13.372660 -29.620986 -7.305325 0.000000 0.000000 0.000000 -7.125000 0.000000 0.000000 -11.388733 37.266549 -2.201758 0.000000 0.000000 0.000000 -7.490887 27.398735 46.680486 -130.287972 -52.878624 -94.055602 -19.711627 -13.193496 -26.997218 0.000000 0.000000 0.000000 7.125000 0.000000 0.000000 6.187011 1.703244 6.035907
6.448856 16.912242 2.965121 24.534921 -43.505344 -5.000993 0.000000 0.000000 0.000000 -32.682617 1.770737 10.478204 2.580077 9.969045 28.888145 0.749530 -1.002444 16.747573 0.120556 -2.012142 -5.547725 0.000000 0.000000 0.000000 22.130333 11.525364 -48.912349 -4.538613 -12.832816 38.764813 0.011531 4.636655 -2.807575 -0.138247 2.383661 -6.567716 -10.542621 -0.801040 13.183420 -2.322638 -2.815641 1.121642 3.964342 -1.168456 -5.836555 -10.976620 -1.152367 -17.191086 4.685865 0.355020 12.003244 3.328893 0.059444 6.440412 0.000000 0.000000 0.000000 1.471927 14.999309 -45.877878 118.332757 -56.725522 84.265520 13.287489 -29.511856 -7.353748 0.000000 0.000000 0.000000 -7.125000 0.000000 0.000000 -11.468666 37.309776 -2.205187 0.000000 0.000000 0.000000 -7.481085 27.316614 46.409702 -130.241421 -52.897555 -94.018475 -19.664613 -13.080896 -26.946439 0.000000 0.000000 0.000000 7.125000 0.000000 0.000000 6.209813 1.763489 6.051599
6.395911 16.920972 3.077616 24.685216 -43.477935 -5.072008 0.000000 0.000000 0.000000 -32.692020 2.053743 10.213835 2.687966 10.158529 29.503968 0.706135 -0.508835 16.069276 0.167380 -2.436672 -6.723606 0.000000 0.000000 0.000000 22.135907 11.436112 -48.673664 -4.390800 -12.650526 38.093585 0.010689 4.239787 -2.520509 -0.150931 2.490625 -6.864226 -10.609471 -0.778154 13.114762 -2.293336 -2.782848 1.131402 4.024502 -1.153311 -5.787732 -10.965177 -1.233962 -17.240161 4.591460 0.262192 12.057220 3.287538 0.005805 6.474152 0.000000 0.000000 0.000000 1.522284 14.996680 -45.876090 117.678735 -56.884295 83.718062 13.202318 -29.402726 -7.402170 0.000000 0.000000 0.000000 -7.125000 0.000000 0.000000 -11.548599 37.353003 -2.208615 0.000000 0.000000 0.000000 -7.471282 27.234493 46.138918 -130.194871 -52.916487 -93.981348 -19.617600 -12.968295 -26.895660 0.000000 0.000000 0.000000 7.125000 0.000000 0.000000 6.232615 1.823733 6.067291
6.342965 16.929701 3.190112 24.835512 -43.450526 -5.143022 0.000000 0.000000 0.000000 -32.701423 2.336748 9.949467 2.795855 10.348012 30.119790 0.662740 -0.015226 15.390980 0.214204 -2.861201 -7.899487 0.000000 0.000000 0.000000 22.141481 11.346860 -48.434979 -4.242986 -12.468237 37.422356 0.009848 3.842918 -2.233444 -0.163615 2.597588 -7.160737 -10.676320 -0.755268 13.046103 -2.264034 -2.750054 1.141162 4.084662 -1.138165 -5.738910 -10.953734 -1.315557 -17.289236 4.497055 0.169364 12.111196 3.246183 -0.047835 6.507892 0.000000 0.000000 0.000000 1.572642 14.994050 -45.874302 117.024713 -57.043067 83.170603 13.117147 -29.293596 -7.450593 0.000000 0.000000 0.000000 -7.125000 0.000000 0.000000 -11.628532 37.396230 -2.212044 0.000000 0.000000 0.000000 -7.461480 27.152373 45.868133 -130.148320 -52.935418 -93.944222 -19.570586 -12.855694 -26.844882 0.000000 0.000000 0.000000 7.125000 0.000000 0.000000 6.255417 1.883977 6.082983
6.290020 16.938431 3.302607 24.985807 -43.423118 -5.214036 0.000000 0.000000 0.000000 -32.710825 2.619754 9.685098 2.903744 10.537496 30.735613 0.619344 0.478382 14.712683 0.261028 -3.285731 -9.075368 0.000000 0.000000 0.000000 22.147056 11.257608 -48.196294 -4.095173 -12.285947 36.751127 0.009007 3.446050 -1.946378 -0.176299 2.704551 -7.457247 -10.743169 -0.732382 12.977445 -2.234733 -2.717260 1.150923 4.144823 -1.123020 -5.690087 -10.942291 -1.397152 -17.338311 4.402649 0.076537 12.165172 3.204828 -0.101474 6.541632 0.000000 0.000000 0.000000 1.623000 14.991421 -45.872514 116.370691 -57.201840 82.623145 13.031976 -29.184466 -7.499016 0.000000 0.000000 0.000000 -7.125000 0.000000 0.000000 -11.708466 37.439457 -2.215473 0.000000 0.000000 0.000000 -7.451678 27.070252 45.597349 -130.101769 -52.954350 -93.907095 -19.523573 -12.743094 -26.794103 0.000000 0.000000 0.000000 7.125000 0.000000 0.000000 6.278219 1.944222 6.098675
